#!OML:ASF F:\VICON\USERDATA\INSTALL\rory3\rory3.ASF
:FULLY-SPECIFIED
:DEGREES
685
root 0.427394 15.9317 17.6872 222.95 -73.8864 -202.353
lowerback -8.34482 -1.43168 -8.48178
upperback -11.1501 -2.4513 -0.942177
thorax -6.92309 -0.966249 3.71394
lowerneck -6.70753 -16.4591 -16.8674
upperneck 24.6851 -25.5553 11.8164
head 13.1211 -12.3577 2.89961
rclavicle 1.4033e-014 -2.31087e-014
rhumerus -35.6903 -17.0328 -75.7206
rradius 29.3401
rwrist 14.6628
rhand -18.1978 27.335
rfingers 7.12502
rthumb 8.0794 -2.49055
lclavicle 1.4033e-014 -2.31087e-014
lhumerus -71.9487 38.4422 22.2874
lradius 24.6041
lwrist -31.6383
lhand -11.9531 15.2294
lfingers 7.12502
lthumb 14.1022 44.7308
rfemur -63.3596 4.88101 14.3985
rtibia 62.8908
rfoot -20.1929 -17.6876
rtoes 31.4336
lfemur 164.322 181.478 169.013
ltibia 31.5833
lfoot -83.4469 -6.71938
ltoes 46.1792
686
root 0.343629 15.8645 17.4858 222.56 -73.748 -201.943
lowerback -8.4997 -1.58245 -7.5454
upperback -11.1128 -2.65263 -0.745589
thorax -6.76545 -1.13362 3.38905
lowerneck -7.72786 -16.3812 -17.3555
upperneck 24.9461 -25.0548 11.468
head 13.361 -12.1232 2.85006
rclavicle -2.85753e-016 -9.24349e-015
rhumerus -36.3508 -17.3317 -73.9822
rradius 28.4303
rwrist 15.0543
rhand -16.8729 25.9117
rfingers 7.12502
rthumb 9.35795 -3.86063
lclavicle -2.85753e-016 -9.24349e-015
lhumerus -74.5507 39.7417 19.149
lradius 23.033
lwrist -34.0657
lhand -10.4186 15.2233
lfingers 7.12502
lthumb 15.5805 44.6157
rfemur -62.8209 5.01185 15.7043
rtibia 63.1394
rfoot -21.8784 -18.5941
rtoes 29.408
lfemur 165.208 180.59 170.062
ltibia 31.1421
lfoot -80.8681 -3.79687
ltoes 45.6221
687
root 0.258986 15.7825 17.3053 224.933 -72.1168 -204.541
lowerback -8.77738 -1.84033 -8.10414
upperback -10.9534 -2.94648 -0.802676
thorax -6.39479 -1.26403 3.61246
lowerneck -8.86061 -16.0809 -17.5485
upperneck 24.9305 -24.0766 10.9281
head 13.3532 -11.6747 2.81109
rclavicle -1.20886e-014 -3.12092e-014
rhumerus -36.3647 -19.2452 -71.2645
rradius 26.6772
rwrist 17.2939
rhand -15.5354 25.1644
rfingers 7.12502
rthumb 10.6483 -4.54577
lclavicle -1.20886e-014 -3.12092e-014
lhumerus -77.4484 40.7128 16.0846
lradius 21.6827
lwrist -35.7497
lhand -8.00008 15.8111
lfingers 7.12502
lthumb 17.9088 45.0065
rfemur -62.4165 5.14272 14.9027
rtibia 63.4624
rfoot -24.4626 -17.3742
rtoes 32.0866
lfemur 166.173 181.036 169.118
ltibia 31.2618
lfoot -79.2613 -3.09768
ltoes 46.0203
688
root 0.176989 15.7309 17.1316 225.08 -71.3274 -204.609
lowerback -9.20283 -2.11563 -7.39737
upperback -10.8424 -3.28947 -0.645958
thorax -5.99771 -1.49884 3.34741
lowerneck -9.88643 -15.7158 -17.6588
upperneck 24.742 -23.0758 10.5969
head 13.2765 -11.2047 2.85714
rclavicle 1.94064e-014 2.22639e-014
rhumerus -36.099 -22.3732 -67.7921
rradius 24.1638
rwrist 21.1143
rhand -14.8563 25.0061
rfingers 7.12502
rthumb 11.3034 -4.6693
lclavicle 1.94064e-014 2.22639e-014
lhumerus -80.5373 41.4346 12.3468
lradius 20.3839
lwrist -37.9708
lhand -3.88763 16.8029
lfingers 7.12502
lthumb 21.8619 45.5879
rfemur -61.9403 5.40949 14.9635
rtibia 63.4272
rfoot -26.74 -15.0771
rtoes 36.9363
lfemur 166.507 182.068 169.36
ltibia 31.9766
lfoot -77.019 -2.95373
ltoes 47.0959
689
root 0.1228 15.719 17.0153 223.835 -71.0843 -201.982
lowerback -10.3211 -1.95593 -5.04437
upperback -10.9515 -3.13929 -0.458671
thorax -5.56284 -1.60548 2.19896
lowerneck -11.1655 -15.7043 -17.8208
upperneck 24.452 -22.607 10.5424
head 13.3492 -10.9213 2.86728
rclavicle 1.92324e-014 1.82882e-014
rhumerus -35.6677 -25.418 -64.2286
rradius 21.9319
rwrist 24.086
rhand -14.4841 24.4812
rfingers 7.12502
rthumb 11.6623 -5.17426
lclavicle 1.92324e-014 1.82882e-014
lhumerus -82.4053 42.1533 9.72056
lradius 19.1199
lwrist -39.8519
lhand 0.749739 17.5522
lfingers 7.12502
lthumb 26.3083 45.7478
rfemur -63.0911 5.51438 16.0327
rtibia 63.2892
rfoot -27.1747 -13.4901
rtoes 38.9817
lfemur 165.264 183.648 170.589
ltibia 32.8483
lfoot -74.5102 -2.44937
ltoes 48.4067
690
root 0.0965348 15.7166 16.8804 219.501 -71.0852 -196.591
lowerback -10.5115 -1.56637 -2.33437
upperback -11.1135 -2.77524 -0.00565508
thorax -5.71426 -1.59288 1.18474
lowerneck -11.7895 -15.6581 -17.5609
upperneck 23.8151 -22.2435 10.4404
head 13.1017 -10.7043 2.84447
rclavicle -7.45443e-016 -1.23246e-014
rhumerus -35.6383 -28.1241 -60.5563
rradius 20.1771
rwrist 26.3714
rhand -14.3926 23.3015
rfingers 7.12502
rthumb 11.7505 -6.34888
lclavicle -7.45443e-016 -1.23246e-014
lhumerus -83.4181 42.3264 8.34891
lradius 18.3665
lwrist -40.3976
lhand 1.97429 18.8978
lfingers 7.12502
lthumb 27.48 46.9129
rfemur -63.6854 6.52824 18.2798
rtibia 62.9308
rfoot -26.9441 -13.7265
rtoes 38.4017
lfemur 164.338 184.814 172.979
ltibia 33.9534
lfoot -70.9225 -0.888495
ltoes 48.6843
691
root 0.00551321 15.7173 16.7546 219.117 -70.4083 -195.887
lowerback -9.69802 -0.55895 0.46783
upperback -12.0843 -1.79 -1.5345
thorax -7.39938 -1.42497 -1.88266
lowerneck -10.4294 -15.646 -16.9604
upperneck 23.6019 -22.7554 10.766
head 12.7959 -10.9587 2.87993
rclavicle -1.34925e-014 -7.55382e-015
rhumerus -39.4592 -31.5591 -55.5169
rradius 18.7955
rwrist 29.0677
rhand -15.2572 22.287
rfingers 7.12502
rthumb 10.9167 -7.40922
lclavicle -1.34925e-014 -7.55382e-015
lhumerus -80.8004 39.8231 9.18705
lradius 17.8333
lwrist -39.966
lhand 0.720373 20.8404
lfingers 7.12502
lthumb 26.2802 49.0402
rfemur -63.4979 6.26219 19.0429
rtibia 62.8179
rfoot -27.1585 -13.0222
rtoes 37.9852
lfemur 164.102 186.503 173.288
ltibia 34.9092
lfoot -67.0661 1.38027
ltoes 48.1706
692
root -0.0653901 15.7186 16.6242 218.471 -69.436 -194.713
lowerback -9.21392 0.303181 2.58804
upperback -12.8538 -0.897117 -2.69405
thorax -8.58595 -1.29764 -4.26826
lowerneck -9.57693 -15.5714 -16.3639
upperneck 23.5405 -23.0697 11.0623
head 12.6165 -11.1003 2.91069
rclavicle 4.16205e-015 -1.4064e-014
rhumerus -42.8127 -34.5274 -50.0508
rradius 17.3779
rwrist 32.538
rhand -15.8942 21.2319
rfingers 7.12502
rthumb 10.3022 -8.49579
lclavicle 4.16205e-015 -1.4064e-014
lhumerus -78.9083 37.797 9.54303
lradius 17.5201
lwrist -39.1763
lhand -0.0935439 22.723
lfingers 7.12502
lthumb 25.5008 51.0365
rfemur -63.5567 6.21984 19.8581
rtibia 62.5593
rfoot -26.9286 -12.302
rtoes 37.4641
lfemur 163.537 187.392 173.458
ltibia 35.7673
lfoot -64.4806 4.23801
ltoes 50.347
693
root -0.133097 15.7206 16.4338 217.993 -67.94 -193.903
lowerback -10.9402 -0.0144686 1.76175
upperback -11.8617 -1.17439 -1.90706
thorax -6.47562 -1.24084 -3.00877
lowerneck -11.6608 -15.4192 -15.8227
upperneck 23.1562 -22.2337 10.5878
head 12.5985 -10.5856 2.70374
rclavicle -5.76351e-014 -2.92213e-014
rhumerus -40.882 -38.0984 -45.933
rradius 15.5077
rwrist 37.0723
rhand -16.0673 19.887
rfingers 7.12502
rthumb 10.1352 -9.84892
lclavicle -5.76351e-014 -2.92213e-014
lhumerus -81.3413 39.3459 7.38337
lradius 17.4686
lwrist -38.6372
lhand -0.814997 24.4242
lfingers 7.12502
lthumb 24.8095 52.8348
rfemur -63.3106 6.90427 20.3432
rtibia 62.3604
rfoot -26.8673 -11.8185
rtoes 37.3523
lfemur 163.532 186.618 173.137
ltibia 35.9009
lfoot -61.4973 5.9598
ltoes 49.9405
694
root -0.11057 15.7107 16.1884 214.082 -64.1642 -189.509
lowerback -10.2536 1.02444 0.696402
upperback -12.3056 0.222334 -1.68963
thorax -7.25404 -0.482036 -2.10845
lowerneck -11.9915 -15.309 -15.3255
upperneck 23.8715 -22.0697 9.89827
head 12.7585 -10.5298 2.39506
rclavicle 9.93923e-017 1.59028e-015
rhumerus -42.6796 -40.3638 -40.5617
rradius 14.4844
rwrist 39.714
rhand -16.1021 18.4473
rfingers 7.12502
rthumb 10.1017 -11.2902
lclavicle 9.93923e-017 1.59028e-015
lhumerus -80.3723 37.6823 8.40437
lradius 17.5267
lwrist -36.2215
lhand -2.08828 26.1315
lfingers 7.12502
lthumb 23.5887 54.7047
rfemur -63.1488 11.3096 20.6842
rtibia 61.7442
rfoot -26.3979 -12.2664
rtoes 37.383
lfemur 164.305 184.734 172.92
ltibia 36.0202
lfoot -60.5886 5.79269
ltoes 49.5016
